<svg width="21" height="21" viewBox="0 0 21 21" fill="none" xmlns="http://www.w3.org/2000/svg">
<path d="M0.5 20.1925C0.5 20.1109 0.532418 20.0326 0.590121 19.9749C0.647824 19.9172 0.726086 19.8848 0.807692 19.8848H20.1923C20.2739 19.8848 20.3522 19.9172 20.4099 19.9749C20.4676 20.0326 20.5 20.1109 20.5 20.1925C20.5 20.2741 20.4676 20.3523 20.4099 20.41C20.3522 20.4677 20.2739 20.5002 20.1923 20.5002H0.807692C0.726086 20.5002 0.647824 20.4677 0.590121 20.41C0.532418 20.3523 0.5 20.2741 0.5 20.1925Z" stroke="#1F1F22"/>
<path d="M2.42293 10.4424H5.6537C5.68556 10.4424 5.71139 10.4682 5.71139 10.5001V20.1924C5.71139 20.2242 5.68556 20.2501 5.6537 20.2501H2.42293C2.39106 20.2501 2.36523 20.2242 2.36523 20.1924V10.5001C2.36523 10.4682 2.39106 10.4424 2.42293 10.4424Z" stroke="#1F1F22" stroke-width="1.5"/>
<path d="M8.8846 0.75H12.1154C12.1472 0.75 12.1731 0.77583 12.1731 0.807692V20.1923C12.1731 20.2242 12.1472 20.25 12.1154 20.25H8.8846C8.85273 20.25 8.8269 20.2242 8.8269 20.1923V0.807692C8.8269 0.77583 8.85273 0.75 8.8846 0.75Z" stroke="#1F1F22" stroke-width="1.5"/>
<path d="M15.3463 5.59619H18.577C18.6089 5.59619 18.6347 5.62202 18.6347 5.65388V20.1923C18.6347 20.2242 18.6089 20.25 18.577 20.25H15.3463C15.3144 20.25 15.2886 20.2242 15.2886 20.1923V5.65388C15.2886 5.62202 15.3144 5.59619 15.3463 5.59619Z" stroke="#1F1F22" stroke-width="1.5"/>
</svg>
