<svg width="current" height="current" viewBox="0 0 23 20" fill="none" xmlns="http://www.w3.org/2000/svg">
<path d="M11.2729 7.891C10.0328 7.891 9.01829 8.90553 9.01829 10.1456C9.01829 11.3856 10.0328 12.4002 11.2729 12.4002C12.5129 12.4002 13.5275 11.3856 13.5275 10.1456C13.5275 8.90553 12.5129 7.891 11.2729 7.891ZM19.1636 3.3818H17.6982L17.36 2.36726C17.2474 2.02908 17.1345 1.80356 16.9092 1.46538V1.35272L16.7965 1.24006C16.12 0.451035 15.2183 0 14.2038 0H8.34164C7.77814 0 7.10178 0.225518 6.65074 0.563698C6.53808 0.563698 6.53808 0.67636 6.42523 0.67636C5.86172 1.12739 5.41088 1.6909 5.18536 2.36726L4.84718 3.3818H3.3818C1.46538 3.3818 0 4.84718 0 6.7636V15.7819C0 17.6983 1.46538 19.1637 3.3818 19.1637H19.1637C21.0801 19.1637 22.5455 17.6983 22.5455 15.7819V6.7636C22.5453 4.84737 21.08 3.3818 19.1636 3.3818ZM11.2729 14.6548C8.79297 14.6548 6.76389 12.6257 6.76389 10.1458C6.76389 7.66586 8.79297 5.63678 11.2729 5.63678C13.7528 5.63678 15.7819 7.66586 15.7819 10.1458C15.7819 12.6257 13.7528 14.6548 11.2729 14.6548Z" fill="#A3A3A3"/>
</svg>
