<svg width="24" height="25" viewBox="0 0 24 25" fill="none" xmlns="http://www.w3.org/2000/svg">
<path d="M12 22.5C17.3552 22.5 21.7272 18.2905 21.9877 12.9999C22.0013 12.7241 21.7761 12.5 21.5 12.5H12.5C12.2239 12.5 12 12.2761 12 12V3C12 2.72386 11.7759 2.4987 11.5001 2.51228C6.20948 2.77276 2 7.14479 2 12.5C2 18.0228 6.47715 22.5 12 22.5Z" stroke="#9DB2CE" stroke-width="1.5"/>
<path d="M21.9846 9.99991C21.7367 5.97997 18.52 2.76332 14.5001 2.51538C14.2245 2.49838 14 2.72386 14 3V10C14 10.2761 14.2239 10.5 14.5 10.5H21.5C21.7761 10.5 22.0016 10.2755 21.9846 9.99991Z" stroke="#9DB2CE" stroke-width="1.5"/>
</svg>
