<svg width="21" height="21" viewBox="0 0 21 21" fill="none" xmlns="http://www.w3.org/2000/svg">
<path fill-rule="evenodd" clip-rule="evenodd" d="M0 20.1923C0 19.9781 0.0850961 19.7727 0.236568 19.6212C0.388039 19.4697 0.593479 19.3846 0.807692 19.3846H20.1923C20.4065 19.3846 20.612 19.4697 20.7634 19.6212C20.9149 19.7727 21 19.9781 21 20.1923C21 20.4065 20.9149 20.612 20.7634 20.7635C20.612 20.9149 20.4065 21 20.1923 21H0.807692C0.593479 21 0.388039 20.9149 0.236568 20.7635C0.0850961 20.612 0 20.4065 0 20.1923Z" fill="#9DB2CE"/>
<path d="M5.65382 9.69238H2.42305C1.97697 9.69238 1.61536 10.054 1.61536 10.5001V20.1924C1.61536 20.6385 1.97697 21.0001 2.42305 21.0001H5.65382C6.09989 21.0001 6.46151 20.6385 6.46151 20.1924V10.5001C6.46151 10.054 6.09989 9.69238 5.65382 9.69238Z" fill="#9DB2CE"/>
<path d="M12.1154 0H8.8846C8.43852 0 8.0769 0.361616 8.0769 0.807692V20.1923C8.0769 20.6384 8.43852 21 8.8846 21H12.1154C12.5614 21 12.9231 20.6384 12.9231 20.1923V0.807692C12.9231 0.361616 12.5614 0 12.1154 0Z" fill="#9DB2CE"/>
<path d="M18.5769 4.84619H15.3461C14.9001 4.84619 14.5385 5.20781 14.5385 5.65388V20.1923C14.5385 20.6384 14.9001 21 15.3461 21H18.5769C19.023 21 19.3846 20.6384 19.3846 20.1923V5.65388C19.3846 5.20781 19.023 4.84619 18.5769 4.84619Z" fill="#9DB2CE"/>
</svg>
